<svg xmlns="http://www.w3.org/2000/svg" width="512" height="512" viewBox="0 0 512 512" role="img" aria-label="Taklifnoma logo">

<defs>
  <linearGradient id="gold" x1="0%" y1="0%" x2="100%" y2="100%">
    <stop offset="0%" stop-color="#fff0b8"/>
    <stop offset="28%" stop-color="#d8a344"/>
    <stop offset="58%" stop-color="#a66a20"/>
    <stop offset="82%" stop-color="#f2cc74"/>
    <stop offset="100%" stop-color="#8d5517"/>
  </linearGradient>
  <linearGradient id="goldSoft" x1="0%" y1="0%" x2="100%" y2="100%">
    <stop offset="0%" stop-color="#fff6d8"/>
    <stop offset="50%" stop-color="#d7a44b"/>
    <stop offset="100%" stop-color="#9f6a24"/>
  </linearGradient>
  <linearGradient id="paper" x1="0%" y1="0%" x2="100%" y2="100%">
    <stop offset="0%" stop-color="#fffdf7"/>
    <stop offset="100%" stop-color="#f4dfc4"/>
  </linearGradient>
  <radialGradient id="blush" cx="35%" cy="25%" r="70%">
    <stop offset="0%" stop-color="#ffe2da"/>
    <stop offset="55%" stop-color="#e5a291"/>
    <stop offset="100%" stop-color="#b86b61"/>
  </radialGradient>
  <filter id="softShadow" x="-30%" y="-30%" width="160%" height="160%">
    <feDropShadow dx="0" dy="8" stdDeviation="8" flood-color="#6b3a18" flood-opacity=".20"/>
  </filter>
  <filter id="smallShadow" x="-30%" y="-30%" width="160%" height="160%">
    <feDropShadow dx="0" dy="4" stdDeviation="4" flood-color="#6b3a18" flood-opacity=".18"/>
  </filter>
  <style>
    .word { font-family: "Cormorant Garamond", "Times New Roman", serif; font-weight: 700; letter-spacing: -2px; }
    .script { font-family: "Allura", "Snell Roundhand", "Brush Script MT", cursive; font-weight: 400; }
    .tag { font-family: Inter, Arial, sans-serif; letter-spacing: 3px; font-weight: 600; }
  </style>
</defs>


  <g transform="translate(256 256)">
    
    <g filter="url(#softShadow)">
      <circle cx="0" cy="0" r="124.2" fill="none" stroke="url(#gold)" stroke-width="9.450000000000001"/>
      <path d="M -33.75 -129.60000000000002 C -13.5 -159.3, 13.5 -159.3, 33.75 -129.60000000000002
               M -59.400000000000006 -126.9 C -43.2 -99.9, -18.900000000000002 -110.7, -9.450000000000001 -129.60000000000002
               M 59.400000000000006 -126.9 C 43.2 -99.9, 18.900000000000002 -110.7, 9.450000000000001 -129.60000000000002"
            fill="none" stroke="url(#gold)" stroke-width="6.75" stroke-linecap="round"/>
      <path d="M 0 -136.35000000000002
               C -18.900000000000002 -156.60000000000002, -47.25 -129.60000000000002, 0 -101.25
               C 47.25 -129.60000000000002, 18.900000000000002 -156.60000000000002, 0 -136.35000000000002Z"
            fill="#fff7e7" stroke="url(#gold)" stroke-width="4.050000000000001"/>

      <rect x="-67.5" y="-64.80000000000001" width="135.0" height="94.5" rx="5.4" fill="url(#paper)" stroke="url(#goldSoft)" stroke-width="2.7"/>
      <path d="M -51.300000000000004 -45.900000000000006 H 51.300000000000004 M -32.400000000000006 -27.0 H 32.400000000000006"
            stroke="url(#goldSoft)" stroke-width="2.43" stroke-linecap="round" opacity=".75"/>
      <path d="M 0 -58.050000000000004 C -8.100000000000001 -47.25, 8.100000000000001 -47.25, 0 -36.45"
            fill="none" stroke="url(#goldSoft)" stroke-width="2.295" stroke-linecap="round"/>

      <path d="M -94.5 -27.0 L 0 47.25 L 94.5 -27.0 V 83.7 H -94.5Z"
            fill="url(#paper)" stroke="url(#gold)" stroke-width="4.050000000000001" stroke-linejoin="round"/>
      <path d="M -94.5 -27.0 L 0 35.1 L 94.5 -27.0"
            fill="none" stroke="url(#goldSoft)" stroke-width="4.050000000000001" stroke-linecap="round"/>

      

      <path d="M 0 13.5
               C -24.3 -13.5, -60.75000000000001 21.6, 0 60.75000000000001
               C 60.75000000000001 21.6, 24.3 -13.5, 0 13.5Z"
            fill="url(#blush)" stroke="url(#gold)" stroke-width="5.4"/>
      
      <g transform="translate(-83.7 67.5) scale(1.35)" filter="url(#smallShadow)">
        <circle cx="0" cy="0" r="16" fill="url(#blush)" stroke="url(#gold)" stroke-width="1"/>
        <path d="M-10 0 C-8 -12 8 -12 10 0 C8 12 -8 12 -10 0Z" fill="#ffd6cd" opacity=".82"/>
        <path d="M0 -11 C13 -7 13 7 0 11 C-13 7 -13 -7 0 -11Z" fill="#efb1a5" opacity=".78"/>
        <path d="M-30 4 C-14 -6 -10 14 -26 18Z" fill="url(#goldSoft)"/>
        <path d="M28 4 C12 -6 10 14 26 18Z" fill="url(#goldSoft)"/>
      </g>
      <g transform="translate(83.7 67.5) scale(1.35)" filter="url(#smallShadow)">
        <circle cx="0" cy="0" r="16" fill="url(#blush)" stroke="url(#gold)" stroke-width="1"/>
        <path d="M-10 0 C-8 -12 8 -12 10 0 C8 12 -8 12 -10 0Z" fill="#ffd6cd" opacity=".82"/>
        <path d="M0 -11 C13 -7 13 7 0 11 C-13 7 -13 -7 0 -11Z" fill="#efb1a5" opacity=".78"/>
        <path d="M-28 4 C-12 -6 -10 14 -26 18Z" fill="url(#goldSoft)"/>
        <path d="M30 4 C14 -6 10 14 26 18Z" fill="url(#goldSoft)"/>
      </g>
    
    </g>
    
  </g>

</svg>
