<svg xmlns="http://www.w3.org/2000/svg" width="512" height="512" viewBox="0 0 512 512" role="img" aria-label="Taklifnoma logo">

<defs>
  <linearGradient id="gold" x1="0%" y1="0%" x2="100%" y2="100%">
    <stop offset="0%" stop-color="#fff0b8"/>
    <stop offset="28%" stop-color="#d8a344"/>
    <stop offset="58%" stop-color="#a66a20"/>
    <stop offset="82%" stop-color="#f2cc74"/>
    <stop offset="100%" stop-color="#8d5517"/>
  </linearGradient>
  <linearGradient id="goldSoft" x1="0%" y1="0%" x2="100%" y2="100%">
    <stop offset="0%" stop-color="#fff6d8"/>
    <stop offset="50%" stop-color="#d7a44b"/>
    <stop offset="100%" stop-color="#9f6a24"/>
  </linearGradient>
  <linearGradient id="paper" x1="0%" y1="0%" x2="100%" y2="100%">
    <stop offset="0%" stop-color="#fffdf7"/>
    <stop offset="100%" stop-color="#f4dfc4"/>
  </linearGradient>
  <radialGradient id="blush" cx="35%" cy="25%" r="70%">
    <stop offset="0%" stop-color="#ffe2da"/>
    <stop offset="55%" stop-color="#e5a291"/>
    <stop offset="100%" stop-color="#b86b61"/>
  </radialGradient>
  <filter id="softShadow" x="-30%" y="-30%" width="160%" height="160%">
    <feDropShadow dx="0" dy="8" stdDeviation="8" flood-color="#6b3a18" flood-opacity=".20"/>
  </filter>
  <filter id="smallShadow" x="-30%" y="-30%" width="160%" height="160%">
    <feDropShadow dx="0" dy="4" stdDeviation="4" flood-color="#6b3a18" flood-opacity=".18"/>
  </filter>
  <style>
    .word { font-family: "Cormorant Garamond", "Times New Roman", serif; font-weight: 700; letter-spacing: -2px; }
    .script { font-family: "Allura", "Snell Roundhand", "Brush Script MT", cursive; font-weight: 400; }
    .tag { font-family: Inter, Arial, sans-serif; letter-spacing: 3px; font-weight: 600; }
  </style>
</defs>


  <g transform="translate(256 250)">
    
    <g filter="url(#softShadow)">
      <circle cx="0" cy="0" r="110.39999999999999" fill="none" stroke="url(#gold)" stroke-width="8.4"/>
      <path d="M -30.0 -115.19999999999999 C -12.0 -141.6, 12.0 -141.6, 30.0 -115.19999999999999
               M -52.8 -112.8 C -38.4 -88.8, -16.8 -98.39999999999999, -8.4 -115.19999999999999
               M 52.8 -112.8 C 38.4 -88.8, 16.8 -98.39999999999999, 8.4 -115.19999999999999"
            fill="none" stroke="url(#gold)" stroke-width="6.0" stroke-linecap="round"/>
      <path d="M 0 -121.19999999999999
               C -16.8 -139.2, -42.0 -115.19999999999999, 0 -90.0
               C 42.0 -115.19999999999999, 16.8 -139.2, 0 -121.19999999999999Z"
            fill="#fff7e7" stroke="url(#gold)" stroke-width="3.5999999999999996"/>

      <rect x="-60.0" y="-57.599999999999994" width="120.0" height="84.0" rx="4.8" fill="url(#paper)" stroke="url(#goldSoft)" stroke-width="2.4"/>
      <path d="M -45.6 -40.8 H 45.6 M -28.799999999999997 -24.0 H 28.799999999999997"
            stroke="url(#goldSoft)" stroke-width="2.16" stroke-linecap="round" opacity=".75"/>
      <path d="M 0 -51.6 C -7.199999999999999 -42.0, 7.199999999999999 -42.0, 0 -32.4"
            fill="none" stroke="url(#goldSoft)" stroke-width="2.04" stroke-linecap="round"/>

      <path d="M -84.0 -24.0 L 0 42.0 L 84.0 -24.0 V 74.39999999999999 H -84.0Z"
            fill="url(#paper)" stroke="url(#gold)" stroke-width="3.5999999999999996" stroke-linejoin="round"/>
      <path d="M -84.0 -24.0 L 0 31.2 L 84.0 -24.0"
            fill="none" stroke="url(#goldSoft)" stroke-width="3.5999999999999996" stroke-linecap="round"/>

      
      <text x="0" y="26.4" text-anchor="middle" class="script" font-size="115.19999999999999" fill="url(#gold)" stroke="#7b4a16" stroke-width="0.96" filter="url(#smallShadow)">T</text>
    

      <path d="M 0 12.0
               C -21.599999999999998 -12.0, -54.0 19.2, 0 54.0
               C 54.0 19.2, 21.599999999999998 -12.0, 0 12.0Z"
            fill="url(#blush)" stroke="url(#gold)" stroke-width="4.8"/>
      
      <g transform="translate(-74.39999999999999 60.0) scale(1.2)" filter="url(#smallShadow)">
        <circle cx="0" cy="0" r="16" fill="url(#blush)" stroke="url(#gold)" stroke-width="1"/>
        <path d="M-10 0 C-8 -12 8 -12 10 0 C8 12 -8 12 -10 0Z" fill="#ffd6cd" opacity=".82"/>
        <path d="M0 -11 C13 -7 13 7 0 11 C-13 7 -13 -7 0 -11Z" fill="#efb1a5" opacity=".78"/>
        <path d="M-30 4 C-14 -6 -10 14 -26 18Z" fill="url(#goldSoft)"/>
        <path d="M28 4 C12 -6 10 14 26 18Z" fill="url(#goldSoft)"/>
      </g>
      <g transform="translate(74.39999999999999 60.0) scale(1.2)" filter="url(#smallShadow)">
        <circle cx="0" cy="0" r="16" fill="url(#blush)" stroke="url(#gold)" stroke-width="1"/>
        <path d="M-10 0 C-8 -12 8 -12 10 0 C8 12 -8 12 -10 0Z" fill="#ffd6cd" opacity=".82"/>
        <path d="M0 -11 C13 -7 13 7 0 11 C-13 7 -13 -7 0 -11Z" fill="#efb1a5" opacity=".78"/>
        <path d="M-28 4 C-12 -6 -10 14 -26 18Z" fill="url(#goldSoft)"/>
        <path d="M30 4 C14 -6 10 14 26 18Z" fill="url(#goldSoft)"/>
      </g>
    
    </g>
    
  </g>
  <text x="256" y="472" text-anchor="middle" class="tag" font-size="18" fill="#9a6b2c">TAKLIFNOMA</text>

</svg>
