<svg xmlns="http://www.w3.org/2000/svg" width="512" height="512" viewBox="0 0 512 512" role="img" aria-label="Taklifnoma logo">

<defs>
  <linearGradient id="gold" x1="0%" y1="0%" x2="100%" y2="100%">
    <stop offset="0%" stop-color="#fff0b8"/>
    <stop offset="28%" stop-color="#d8a344"/>
    <stop offset="58%" stop-color="#a66a20"/>
    <stop offset="82%" stop-color="#f2cc74"/>
    <stop offset="100%" stop-color="#8d5517"/>
  </linearGradient>
  <linearGradient id="goldSoft" x1="0%" y1="0%" x2="100%" y2="100%">
    <stop offset="0%" stop-color="#fff6d8"/>
    <stop offset="50%" stop-color="#d7a44b"/>
    <stop offset="100%" stop-color="#9f6a24"/>
  </linearGradient>
  <linearGradient id="paper" x1="0%" y1="0%" x2="100%" y2="100%">
    <stop offset="0%" stop-color="#fffdf7"/>
    <stop offset="100%" stop-color="#f4dfc4"/>
  </linearGradient>
  <radialGradient id="blush" cx="35%" cy="25%" r="70%">
    <stop offset="0%" stop-color="#ffe2da"/>
    <stop offset="55%" stop-color="#e5a291"/>
    <stop offset="100%" stop-color="#b86b61"/>
  </radialGradient>
  <filter id="softShadow" x="-30%" y="-30%" width="160%" height="160%">
    <feDropShadow dx="0" dy="8" stdDeviation="8" flood-color="#6b3a18" flood-opacity=".20"/>
  </filter>
  <filter id="smallShadow" x="-30%" y="-30%" width="160%" height="160%">
    <feDropShadow dx="0" dy="4" stdDeviation="4" flood-color="#6b3a18" flood-opacity=".18"/>
  </filter>
  <style>
    .word { font-family: "Cormorant Garamond", "Times New Roman", serif; font-weight: 700; letter-spacing: -2px; }
    .script { font-family: "Allura", "Snell Roundhand", "Brush Script MT", cursive; font-weight: 400; }
    .tag { font-family: Inter, Arial, sans-serif; letter-spacing: 3px; font-weight: 600; }
  </style>
</defs>


  <g transform="translate(256 205)">
    
    <g filter="url(#softShadow)">
      <circle cx="0" cy="0" r="96.60000000000001" fill="none" stroke="url(#gold)" stroke-width="7.3500000000000005"/>
      <path d="M -26.25 -100.80000000000001 C -10.5 -123.9, 10.5 -123.9, 26.25 -100.80000000000001
               M -46.2 -98.7 C -33.6 -77.7, -14.700000000000001 -86.10000000000001, -7.3500000000000005 -100.80000000000001
               M 46.2 -98.7 C 33.6 -77.7, 14.700000000000001 -86.10000000000001, 7.3500000000000005 -100.80000000000001"
            fill="none" stroke="url(#gold)" stroke-width="5.25" stroke-linecap="round"/>
      <path d="M 0 -106.05000000000001
               C -14.700000000000001 -121.80000000000001, -36.75 -100.80000000000001, 0 -78.75
               C 36.75 -100.80000000000001, 14.700000000000001 -121.80000000000001, 0 -106.05000000000001Z"
            fill="#fff7e7" stroke="url(#gold)" stroke-width="3.1500000000000004"/>

      <rect x="-52.5" y="-50.400000000000006" width="105.0" height="73.5" rx="4.2" fill="url(#paper)" stroke="url(#goldSoft)" stroke-width="2.1"/>
      <path d="M -39.9 -35.7 H 39.9 M -25.200000000000003 -21.0 H 25.200000000000003"
            stroke="url(#goldSoft)" stroke-width="1.8900000000000001" stroke-linecap="round" opacity=".75"/>
      <path d="M 0 -45.15 C -6.300000000000001 -36.75, 6.300000000000001 -36.75, 0 -28.35"
            fill="none" stroke="url(#goldSoft)" stroke-width="1.785" stroke-linecap="round"/>

      <path d="M -73.5 -21.0 L 0 36.75 L 73.5 -21.0 V 65.10000000000001 H -73.5Z"
            fill="url(#paper)" stroke="url(#gold)" stroke-width="3.1500000000000004" stroke-linejoin="round"/>
      <path d="M -73.5 -21.0 L 0 27.3 L 73.5 -21.0"
            fill="none" stroke="url(#goldSoft)" stroke-width="3.1500000000000004" stroke-linecap="round"/>

      

      <path d="M 0 10.5
               C -18.900000000000002 -10.5, -47.25 16.8, 0 47.25
               C 47.25 16.8, 18.900000000000002 -10.5, 0 10.5Z"
            fill="url(#blush)" stroke="url(#gold)" stroke-width="4.2"/>
      
      <g transform="translate(-65.10000000000001 52.5) scale(1.05)" filter="url(#smallShadow)">
        <circle cx="0" cy="0" r="16" fill="url(#blush)" stroke="url(#gold)" stroke-width="1"/>
        <path d="M-10 0 C-8 -12 8 -12 10 0 C8 12 -8 12 -10 0Z" fill="#ffd6cd" opacity=".82"/>
        <path d="M0 -11 C13 -7 13 7 0 11 C-13 7 -13 -7 0 -11Z" fill="#efb1a5" opacity=".78"/>
        <path d="M-30 4 C-14 -6 -10 14 -26 18Z" fill="url(#goldSoft)"/>
        <path d="M28 4 C12 -6 10 14 26 18Z" fill="url(#goldSoft)"/>
      </g>
      <g transform="translate(65.10000000000001 52.5) scale(1.05)" filter="url(#smallShadow)">
        <circle cx="0" cy="0" r="16" fill="url(#blush)" stroke="url(#gold)" stroke-width="1"/>
        <path d="M-10 0 C-8 -12 8 -12 10 0 C8 12 -8 12 -10 0Z" fill="#ffd6cd" opacity=".82"/>
        <path d="M0 -11 C13 -7 13 7 0 11 C-13 7 -13 -7 0 -11Z" fill="#efb1a5" opacity=".78"/>
        <path d="M-28 4 C-12 -6 -10 14 -26 18Z" fill="url(#goldSoft)"/>
        <path d="M30 4 C14 -6 10 14 26 18Z" fill="url(#goldSoft)"/>
      </g>
    
    </g>
    
  </g>
  <text x="256" y="420" text-anchor="middle" class="word" font-size="82" fill="url(#gold)" stroke="#815119" stroke-width="1" filter="url(#smallShadow)">Taklifnoma</text>
  <path d="M 135 452 H 377" stroke="url(#gold)" stroke-width="3" stroke-linecap="round"/>
  <path d="M 222 452 C 240 434, 272 470, 290 452" fill="none" stroke="url(#gold)" stroke-width="3" stroke-linecap="round"/>

</svg>
